<mxfile host="app.diagrams.net" agent="Mozilla/5.0 (Windows NT 10.0; Win64; x64) AppleWebKit/537.36 (KHTML, like Gecko) Chrome/140.0.0.0 Safari/537.36 Edg/140.0.0.0" version="28.2.5">
  <diagram name="第 1 页" id="9oIQpO3N5rQyr_YoQIKY">
    <mxGraphModel dx="3157" dy="9149" grid="1" gridSize="10" guides="1" tooltips="1" connect="1" arrows="1" fold="1" page="1" pageScale="1" pageWidth="1169" pageHeight="827" math="1" shadow="0">
      <root>
        <mxCell id="0" />
        <mxCell id="1" parent="0" />
        <mxCell id="AO_P0Q3c_-_OhgIRzk4a-24" value="" style="edgeStyle=orthogonalEdgeStyle;rounded=0;orthogonalLoop=1;jettySize=auto;html=1;fontFamily=Times New Roman;fontSize=12;" parent="1" source="AO_P0Q3c_-_OhgIRzk4a-6" target="AO_P0Q3c_-_OhgIRzk4a-23" edge="1">
          <mxGeometry relative="1" as="geometry" />
        </mxCell>
        <mxCell id="AO_P0Q3c_-_OhgIRzk4a-6" value=" sampling point &lt;br&gt;generator" style="rounded=0;whiteSpace=wrap;html=1;direction=east;strokeColor=#6c8ebf;arcSize=0;imageAspect=1;fillColor=#dae8fc;fontSize=12;fontFamily=Times New Roman;" parent="1" vertex="1">
          <mxGeometry x="375" y="-5720.5" width="110" height="51" as="geometry" />
        </mxCell>
        <mxCell id="AO_P0Q3c_-_OhgIRzk4a-20" value="" style="group;fontFamily=Times New Roman;fontSize=12;" parent="1" vertex="1" connectable="0">
          <mxGeometry x="196" y="-5637.5" width="170" height="141.0344827586207" as="geometry" />
        </mxCell>
        <mxCell id="AO_P0Q3c_-_OhgIRzk4a-19" value="&lt;span style=&quot;color: rgba(0, 0, 0, 0); text-align: start; text-wrap-mode: nowrap;&quot;&gt;%3CmxGraphModel%3E%3Croot%3E%3CmxCell%20id%3D%220%22%2F%3E%3CmxCell%20id%3D%221%22%20parent%3D%220%22%2F%3E%3CmxCell%20id%3D%222%22%20value%3D%22Linear%22%20style%3D%22rounded%3D0%3BwhiteSpace%3Dwrap%3Bhtml%3D1%3Bdirection%3Deast%3BstrokeColor%3D%236c8ebf%3BarcSize%3D0%3BimageAspect%3D1%3BfillColor%3D%23dae8fc%3BfontSize%3D15%3B%22%20vertex%3D%221%22%20parent%3D%221%22%3E%3CmxGeometry%20x%3D%22370%22%20y%3D%22809.5%22%20width%3D%22140%22%20height%3D%2251%22%20as%3D%22geometry%22%2F%3E%3C%2FmxCell%3E%3C%2Froot%3E%3C%2FmxGraphModel%3E&lt;/span&gt;" style="shape=cube;whiteSpace=wrap;html=1;boundedLbl=1;backgroundOutline=1;darkOpacity=0.05;darkOpacity2=0.1;fillColor=#e1d5e7;strokeColor=#9673a6;size=30;rotation=90;fontFamily=Times New Roman;fontSize=12;" parent="AO_P0Q3c_-_OhgIRzk4a-20" vertex="1">
          <mxGeometry x="36.666666666666664" width="105.41666666666666" height="111.0344827586207" as="geometry" />
        </mxCell>
        <mxCell id="AO_P0Q3c_-_OhgIRzk4a-8" value="$$W$$" style="text;html=1;align=center;verticalAlign=middle;resizable=0;points=[];autosize=1;strokeColor=none;fillColor=none;container=0;fontFamily=Times New Roman;fontSize=12;" parent="AO_P0Q3c_-_OhgIRzk4a-20" vertex="1">
          <mxGeometry x="55" y="111.0344827586207" width="60" height="30" as="geometry" />
        </mxCell>
        <mxCell id="AO_P0Q3c_-_OhgIRzk4a-9" value="$$H$$" style="text;html=1;align=center;verticalAlign=middle;resizable=0;points=[];autosize=1;strokeColor=none;fillColor=none;container=0;fontFamily=Times New Roman;fontSize=12;" parent="AO_P0Q3c_-_OhgIRzk4a-20" vertex="1">
          <mxGeometry x="-5" y="55.00103448275863" width="60" height="30" as="geometry" />
        </mxCell>
        <mxCell id="AO_P0Q3c_-_OhgIRzk4a-10" value="$$X$$" style="text;html=1;align=center;verticalAlign=middle;resizable=0;points=[];autosize=1;strokeColor=none;fillColor=none;container=0;fontFamily=Times New Roman;fontSize=12;" parent="AO_P0Q3c_-_OhgIRzk4a-20" vertex="1">
          <mxGeometry x="45.83333333333333" y="57.931034482758626" width="60" height="30" as="geometry" />
        </mxCell>
        <mxCell id="AO_P0Q3c_-_OhgIRzk4a-11" value="$$C$$" style="text;html=1;align=center;verticalAlign=middle;resizable=0;points=[];autosize=1;strokeColor=none;fillColor=none;container=0;fontFamily=Times New Roman;fontSize=12;" parent="AO_P0Q3c_-_OhgIRzk4a-20" vertex="1">
          <mxGeometry x="110" y="86.89655172413794" width="60" height="30" as="geometry" />
        </mxCell>
        <mxCell id="AO_P0Q3c_-_OhgIRzk4a-29" value="" style="group;fontFamily=Times New Roman;fontSize=12;" parent="1" vertex="1" connectable="0">
          <mxGeometry x="487" y="-5750" width="195" height="140" as="geometry" />
        </mxCell>
        <mxCell id="AO_P0Q3c_-_OhgIRzk4a-17" value="$$sH$$" style="text;html=1;align=center;verticalAlign=middle;resizable=0;points=[];autosize=1;strokeColor=none;fillColor=none;fontFamily=Times New Roman;fontSize=12;" parent="AO_P0Q3c_-_OhgIRzk4a-29" vertex="1">
          <mxGeometry y="60.5" width="60" height="30" as="geometry" />
        </mxCell>
        <mxCell id="AO_P0Q3c_-_OhgIRzk4a-23" value="&lt;div style=&quot;&quot;&gt;&lt;br&gt;&lt;/div&gt;" style="shape=cube;whiteSpace=wrap;html=1;boundedLbl=1;backgroundOutline=1;darkOpacity=0.05;darkOpacity2=0.1;fillColor=#fff2cc;strokeColor=#d6b656;size=11;rotation=90;aspect=fixed;align=center;container=0;fontFamily=Times New Roman;fontSize=12;" parent="AO_P0Q3c_-_OhgIRzk4a-29" vertex="1">
          <mxGeometry x="45" width="110" height="110" as="geometry" />
        </mxCell>
        <mxCell id="AO_P0Q3c_-_OhgIRzk4a-26" value="$$sW$$" style="text;html=1;align=center;verticalAlign=middle;resizable=0;points=[];autosize=1;strokeColor=none;fillColor=none;container=0;fontFamily=Times New Roman;fontSize=12;" parent="AO_P0Q3c_-_OhgIRzk4a-29" vertex="1">
          <mxGeometry x="65" y="110" width="60" height="30" as="geometry" />
        </mxCell>
        <mxCell id="AO_P0Q3c_-_OhgIRzk4a-27" value="$$2g$$" style="text;html=1;align=center;verticalAlign=middle;resizable=0;points=[];autosize=1;strokeColor=none;fillColor=none;container=0;fontFamily=Times New Roman;fontSize=12;" parent="AO_P0Q3c_-_OhgIRzk4a-29" vertex="1">
          <mxGeometry x="135" y="94.5" width="60" height="30" as="geometry" />
        </mxCell>
        <mxCell id="AO_P0Q3c_-_OhgIRzk4a-25" value="&lt;span style=&quot;color: rgb(0, 0, 0); font-style: normal; font-variant-ligatures: normal; font-variant-caps: normal; font-weight: 400; letter-spacing: normal; orphans: 2; text-align: center; text-indent: 0px; text-transform: none; widows: 2; word-spacing: 0px; -webkit-text-stroke-width: 0px; white-space: normal; text-decoration-thickness: initial; text-decoration-style: initial; text-decoration-color: initial; float: none; display: inline !important;&quot;&gt;sampling set&lt;/span&gt;" style="text;whiteSpace=wrap;html=1;fillColor=none;container=0;fontSize=12;fontFamily=Times New Roman;" parent="AO_P0Q3c_-_OhgIRzk4a-29" vertex="1">
          <mxGeometry x="58.5" y="43.75" width="72" height="28.25" as="geometry" />
        </mxCell>
        <mxCell id="AO_P0Q3c_-_OhgIRzk4a-30" value="&lt;font&gt;grid sample&lt;/font&gt;" style="rounded=0;whiteSpace=wrap;html=1;direction=east;strokeColor=#6c8ebf;arcSize=0;imageAspect=1;fillColor=#dae8fc;fontFamily=Times New Roman;fontSize=12;" parent="1" vertex="1">
          <mxGeometry x="643" y="-5608" width="112" height="51" as="geometry" />
        </mxCell>
        <mxCell id="AO_P0Q3c_-_OhgIRzk4a-38" style="edgeStyle=orthogonalEdgeStyle;rounded=0;orthogonalLoop=1;jettySize=auto;html=1;exitX=0;exitY=0;exitDx=49.5;exitDy=0;exitPerimeter=0;fontFamily=Times New Roman;fontSize=12;" parent="1" source="AO_P0Q3c_-_OhgIRzk4a-23" target="AO_P0Q3c_-_OhgIRzk4a-30" edge="1">
          <mxGeometry relative="1" as="geometry" />
        </mxCell>
        <mxCell id="AO_P0Q3c_-_OhgIRzk4a-49" value="" style="group;fontFamily=Times New Roman;fontSize=12;" parent="1" vertex="1" connectable="0">
          <mxGeometry x="787" y="-5670.5" width="185.3" height="155.97826086956522" as="geometry" />
        </mxCell>
        <mxCell id="AO_P0Q3c_-_OhgIRzk4a-18" value="" style="shape=cube;whiteSpace=wrap;html=1;boundedLbl=1;backgroundOutline=1;darkOpacity=0.05;darkOpacity2=0.1;fillColor=#e1d5e7;strokeColor=#9673a6;size=50;rotation=90;aspect=fixed;fontFamily=Times New Roman;fontSize=12;" parent="AO_P0Q3c_-_OhgIRzk4a-49" vertex="1">
          <mxGeometry x="35.8" width="125.97826086956522" height="125.97826086956522" as="geometry" />
        </mxCell>
        <mxCell id="AO_P0Q3c_-_OhgIRzk4a-39" value="$$sH$$" style="text;html=1;align=center;verticalAlign=middle;resizable=0;points=[];autosize=1;strokeColor=none;fillColor=none;fontFamily=Times New Roman;fontSize=12;" parent="AO_P0Q3c_-_OhgIRzk4a-49" vertex="1">
          <mxGeometry x="-20" y="99.45652173913044" width="60" height="30" as="geometry" />
        </mxCell>
        <mxCell id="AO_P0Q3c_-_OhgIRzk4a-40" value="$$sW$$" style="text;html=1;align=center;verticalAlign=middle;resizable=0;points=[];autosize=1;strokeColor=none;fillColor=none;fontFamily=Times New Roman;fontSize=12;" parent="AO_P0Q3c_-_OhgIRzk4a-49" vertex="1">
          <mxGeometry x="34.75" y="125.97826086956522" width="60" height="30" as="geometry" />
        </mxCell>
        <mxCell id="AO_P0Q3c_-_OhgIRzk4a-41" value="$$C$$" style="text;html=1;align=center;verticalAlign=middle;resizable=0;points=[];autosize=1;strokeColor=none;fillColor=none;fontFamily=Times New Roman;fontSize=12;" parent="AO_P0Q3c_-_OhgIRzk4a-49" vertex="1">
          <mxGeometry x="110.30000000000001" y="99.45652173913044" width="60" height="30" as="geometry" />
        </mxCell>
        <mxCell id="AO_P0Q3c_-_OhgIRzk4a-48" value="&lt;span style=&quot;font-style: normal; font-variant-ligatures: normal; font-variant-caps: normal; font-weight: 400; letter-spacing: normal; orphans: 2; text-align: start; text-indent: 0px; text-transform: none; widows: 2; word-spacing: 0px; -webkit-text-stroke-width: 0px; white-space: normal; background-color: rgb(255, 255, 255); text-decoration-thickness: initial; text-decoration-style: initial; text-decoration-color: initial; float: none; display: inline !important;&quot;&gt;&lt;font style=&quot;color: rgb(0, 0, 0);&quot;&gt;$$X^{&#39;}$$&lt;/font&gt;&lt;/span&gt;" style="text;whiteSpace=wrap;html=1;fontFamily=Times New Roman;fontSize=12;" parent="AO_P0Q3c_-_OhgIRzk4a-49" vertex="1">
          <mxGeometry x="60" y="60" width="30" height="40" as="geometry" />
        </mxCell>
        <mxCell id="AO_P0Q3c_-_OhgIRzk4a-52" style="edgeStyle=orthogonalEdgeStyle;rounded=0;orthogonalLoop=1;jettySize=auto;html=1;entryX=0;entryY=0;entryDx=87.98913043478261;entryDy=125.97826086956522;entryPerimeter=0;fontFamily=Times New Roman;fontSize=12;" parent="1" source="AO_P0Q3c_-_OhgIRzk4a-30" edge="1">
          <mxGeometry relative="1" as="geometry">
            <mxPoint x="821.7999999999997" y="-5582.510869565218" as="targetPoint" />
          </mxGeometry>
        </mxCell>
        <mxCell id="AO_P0Q3c_-_OhgIRzk4a-54" value="DySample 结构图" style="text;whiteSpace=wrap;html=1;fontFamily=Times New Roman;" parent="1" vertex="1">
          <mxGeometry x="437" y="-5460.5" width="230" height="40" as="geometry" />
        </mxCell>
        <mxCell id="AO_P0Q3c_-_OhgIRzk4a-55" value="Sampling point generator in DySample" style="text;whiteSpace=wrap;html=1;fontFamily=Times New Roman;" parent="1" vertex="1">
          <mxGeometry x="425.85" y="-6938.5" width="240" height="40" as="geometry" />
        </mxCell>
        <mxCell id="AO_P0Q3c_-_OhgIRzk4a-57" style="edgeStyle=orthogonalEdgeStyle;rounded=0;orthogonalLoop=1;jettySize=auto;html=1;entryX=-0.005;entryY=0.59;entryDx=0;entryDy=0;fontFamily=Times New Roman;entryPerimeter=0;" parent="1" target="AO_P0Q3c_-_OhgIRzk4a-58" edge="1">
          <mxGeometry relative="1" as="geometry">
            <mxPoint x="252.85" y="-7107.75" as="targetPoint" />
            <mxPoint x="234.85" y="-7013.25" as="sourcePoint" />
            <Array as="points">
              <mxPoint x="234.85" y="-7107.75" />
            </Array>
          </mxGeometry>
        </mxCell>
        <mxCell id="AO_P0Q3c_-_OhgIRzk4a-69" style="edgeStyle=orthogonalEdgeStyle;rounded=0;orthogonalLoop=1;jettySize=auto;html=1;entryX=0;entryY=0.5;entryDx=0;entryDy=0;fontFamily=Times New Roman;" parent="1" source="AO_P0Q3c_-_OhgIRzk4a-112" target="AO_P0Q3c_-_OhgIRzk4a-59" edge="1">
          <mxGeometry relative="1" as="geometry">
            <mxPoint x="196.85" y="-7012.75" as="sourcePoint" />
          </mxGeometry>
        </mxCell>
        <mxCell id="AO_P0Q3c_-_OhgIRzk4a-61" value="" style="edgeStyle=orthogonalEdgeStyle;rounded=0;orthogonalLoop=1;jettySize=auto;html=1;fontFamily=Times New Roman;" parent="1" source="AO_P0Q3c_-_OhgIRzk4a-58" target="AO_P0Q3c_-_OhgIRzk4a-60" edge="1">
          <mxGeometry relative="1" as="geometry" />
        </mxCell>
        <mxCell id="AO_P0Q3c_-_OhgIRzk4a-58" value="Linear" style="rounded=0;whiteSpace=wrap;html=1;direction=east;strokeColor=#6c8ebf;arcSize=0;imageAspect=1;fillColor=#dae8fc;fontSize=15;fontFamily=Times New Roman;" parent="1" vertex="1">
          <mxGeometry x="252.85" y="-7125.25" width="65" height="30" as="geometry" />
        </mxCell>
        <mxCell id="AO_P0Q3c_-_OhgIRzk4a-63" value="" style="edgeStyle=orthogonalEdgeStyle;rounded=0;orthogonalLoop=1;jettySize=auto;html=1;fontFamily=Times New Roman;" parent="1" source="AO_P0Q3c_-_OhgIRzk4a-59" target="AO_P0Q3c_-_OhgIRzk4a-62" edge="1">
          <mxGeometry relative="1" as="geometry" />
        </mxCell>
        <mxCell id="AO_P0Q3c_-_OhgIRzk4a-59" value="Linear" style="rounded=0;whiteSpace=wrap;html=1;direction=east;strokeColor=#6c8ebf;arcSize=0;imageAspect=1;fillColor=#dae8fc;fontSize=15;fontFamily=Times New Roman;" parent="1" vertex="1">
          <mxGeometry x="252.85" y="-7027.75" width="65" height="30" as="geometry" />
        </mxCell>
        <mxCell id="AO_P0Q3c_-_OhgIRzk4a-65" value="" style="edgeStyle=orthogonalEdgeStyle;rounded=0;orthogonalLoop=1;jettySize=auto;html=1;fontFamily=Times New Roman;" parent="1" source="AO_P0Q3c_-_OhgIRzk4a-60" target="AO_P0Q3c_-_OhgIRzk4a-64" edge="1">
          <mxGeometry relative="1" as="geometry" />
        </mxCell>
        <mxCell id="AO_P0Q3c_-_OhgIRzk4a-67" style="edgeStyle=orthogonalEdgeStyle;rounded=0;orthogonalLoop=1;jettySize=auto;html=1;entryX=0.5;entryY=1;entryDx=0;entryDy=0;fontFamily=Times New Roman;" parent="1" source="AO_P0Q3c_-_OhgIRzk4a-62" target="AO_P0Q3c_-_OhgIRzk4a-66" edge="1">
          <mxGeometry relative="1" as="geometry" />
        </mxCell>
        <mxCell id="AO_P0Q3c_-_OhgIRzk4a-68" style="edgeStyle=orthogonalEdgeStyle;rounded=0;orthogonalLoop=1;jettySize=auto;html=1;entryX=0.5;entryY=0;entryDx=0;entryDy=0;fontFamily=Times New Roman;" parent="1" source="AO_P0Q3c_-_OhgIRzk4a-64" target="AO_P0Q3c_-_OhgIRzk4a-66" edge="1">
          <mxGeometry relative="1" as="geometry" />
        </mxCell>
        <mxCell id="AO_P0Q3c_-_OhgIRzk4a-64" value="$$0.5\sigma$$" style="rounded=0;whiteSpace=wrap;html=1;direction=east;strokeColor=#6c8ebf;arcSize=0;imageAspect=1;fillColor=#dae8fc;fontSize=15;fontFamily=Times New Roman;" parent="1" vertex="1">
          <mxGeometry x="478.85" y="-7125.25" width="65" height="30" as="geometry" />
        </mxCell>
        <mxCell id="AO_P0Q3c_-_OhgIRzk4a-71" value="" style="edgeStyle=orthogonalEdgeStyle;rounded=0;orthogonalLoop=1;jettySize=auto;html=1;fontFamily=Times New Roman;" parent="1" source="AO_P0Q3c_-_OhgIRzk4a-104" target="AO_P0Q3c_-_OhgIRzk4a-70" edge="1">
          <mxGeometry relative="1" as="geometry" />
        </mxCell>
        <mxCell id="AO_P0Q3c_-_OhgIRzk4a-66" value="" style="shape=orEllipse;perimeter=ellipsePerimeter;whiteSpace=wrap;html=1;backgroundOutline=1;aspect=fixed;fontFamily=Times New Roman;" parent="1" vertex="1">
          <mxGeometry x="549.85" y="-7072.75" width="35" height="35" as="geometry" />
        </mxCell>
        <mxCell id="AO_P0Q3c_-_OhgIRzk4a-74" value="" style="edgeStyle=orthogonalEdgeStyle;rounded=0;orthogonalLoop=1;jettySize=auto;html=1;fontFamily=Times New Roman;" parent="1" source="AO_P0Q3c_-_OhgIRzk4a-70" target="AO_P0Q3c_-_OhgIRzk4a-73" edge="1">
          <mxGeometry relative="1" as="geometry" />
        </mxCell>
        <mxCell id="AO_P0Q3c_-_OhgIRzk4a-73" value="" style="shape=orEllipse;perimeter=ellipsePerimeter;whiteSpace=wrap;html=1;backgroundOutline=1;aspect=fixed;fontFamily=Times New Roman;" parent="1" vertex="1">
          <mxGeometry x="810.85" y="-7008.75" width="35" height="35" as="geometry" />
        </mxCell>
        <mxCell id="AO_P0Q3c_-_OhgIRzk4a-106" value="" style="edgeStyle=orthogonalEdgeStyle;rounded=0;orthogonalLoop=1;jettySize=auto;html=1;fontFamily=Times New Roman;" parent="1" source="AO_P0Q3c_-_OhgIRzk4a-66" target="AO_P0Q3c_-_OhgIRzk4a-104" edge="1">
          <mxGeometry relative="1" as="geometry">
            <mxPoint x="584.85" y="-7054.75" as="sourcePoint" />
            <mxPoint x="715.85" y="-7055.75" as="targetPoint" />
          </mxGeometry>
        </mxCell>
        <mxCell id="AO_P0Q3c_-_OhgIRzk4a-104" value="&lt;span style=&quot;font-size: 12px; text-align: left;&quot;&gt;pixel&lt;/span&gt;&lt;div&gt;&lt;span style=&quot;font-size: 12px; text-align: left;&quot;&gt;shuffle&amp;nbsp;&lt;/span&gt;&lt;/div&gt;" style="rounded=0;whiteSpace=wrap;html=1;direction=east;strokeColor=#6c8ebf;arcSize=0;imageAspect=1;fillColor=#dae8fc;fontSize=15;fontFamily=Times New Roman;" parent="1" vertex="1">
          <mxGeometry x="615.85" y="-7080.5" width="60" height="50" as="geometry" />
        </mxCell>
        <mxCell id="AO_P0Q3c_-_OhgIRzk4a-107" value="" style="group;fontFamily=Times New Roman;" parent="1" vertex="1" connectable="0">
          <mxGeometry x="319.85" y="-7150" width="175" height="107.25" as="geometry" />
        </mxCell>
        <mxCell id="AO_P0Q3c_-_OhgIRzk4a-60" value="&lt;span style=&quot;color: rgba(0, 0, 0, 0); font-size: 0px; text-align: start; text-wrap-mode: nowrap;&quot;&gt;%3CmxGraphModel%3E%3Croot%3E%3CmxCell%20id%3D%220%22%2F%3E%3CmxCell%20id%3D%221%22%20parent%3D%220%22%2F%3E%3CmxCell%20id%3D%222%22%20value%3D%22Linear%22%20style%3D%22rounded%3D0%3BwhiteSpace%3Dwrap%3Bhtml%3D1%3Bdirection%3Deast%3BstrokeColor%3D%236c8ebf%3BarcSize%3D0%3BimageAspect%3D1%3BfillColor%3D%23dae8fc%3BfontSize%3D15%3B%22%20vertex%3D%221%22%20parent%3D%221%22%3E%3CmxGeometry%20x%3D%22370%22%20y%3D%22809.5%22%20width%3D%22140%22%20height%3D%2251%22%20as%3D%22geometry%22%2F%3E%3C%2FmxCell%3E%3C%2Froot%3E%3C%2FmxGraphModel%3E&lt;/span&gt;" style="shape=cube;whiteSpace=wrap;html=1;boundedLbl=1;backgroundOutline=1;darkOpacity=0.05;darkOpacity2=0.1;fillColor=#ffe6cc;strokeColor=#d79b00;size=20;rotation=90;fontFamily=Times New Roman;" parent="AO_P0Q3c_-_OhgIRzk4a-107" vertex="1">
          <mxGeometry x="41" y="1.25" width="80" height="77.5" as="geometry" />
        </mxCell>
        <mxCell id="AO_P0Q3c_-_OhgIRzk4a-80" value="&lt;font style=&quot;font-size: 15px;&quot;&gt;$$O_1$$&lt;/font&gt;" style="text;html=1;align=center;verticalAlign=middle;resizable=0;points=[];autosize=1;strokeColor=none;fillColor=none;fontFamily=Times New Roman;" parent="AO_P0Q3c_-_OhgIRzk4a-107" vertex="1">
          <mxGeometry x="40" y="34.25" width="80" height="30" as="geometry" />
        </mxCell>
        <mxCell id="AO_P0Q3c_-_OhgIRzk4a-81" value="&lt;font style=&quot;font-size: 15px;&quot;&gt;$$H$$&lt;/font&gt;" style="text;html=1;align=center;verticalAlign=middle;resizable=0;points=[];autosize=1;strokeColor=none;fillColor=none;fontFamily=Times New Roman;" parent="AO_P0Q3c_-_OhgIRzk4a-107" vertex="1">
          <mxGeometry x="1" y="44.75" width="60" height="30" as="geometry" />
        </mxCell>
        <mxCell id="AO_P0Q3c_-_OhgIRzk4a-82" value="$$W$$" style="text;html=1;align=center;verticalAlign=middle;resizable=0;points=[];autosize=1;strokeColor=none;fillColor=none;fontFamily=Times New Roman;" parent="AO_P0Q3c_-_OhgIRzk4a-107" vertex="1">
          <mxGeometry x="41" y="72.25" width="60" height="30" as="geometry" />
        </mxCell>
        <mxCell id="AO_P0Q3c_-_OhgIRzk4a-84" value="&lt;font style=&quot;font-size: 15px;&quot;&gt;$$2gs^2$$&lt;/font&gt;" style="text;html=1;align=center;verticalAlign=middle;resizable=0;points=[];autosize=1;strokeColor=none;fillColor=none;fontFamily=Times New Roman;" parent="AO_P0Q3c_-_OhgIRzk4a-107" vertex="1">
          <mxGeometry x="82" y="56.25" width="90" height="30" as="geometry" />
        </mxCell>
        <mxCell id="AO_P0Q3c_-_OhgIRzk4a-108" value="" style="group;fontFamily=Times New Roman;" parent="1" vertex="1" connectable="0">
          <mxGeometry x="319.85" y="-7052.5" width="175" height="108.75" as="geometry" />
        </mxCell>
        <mxCell id="AO_P0Q3c_-_OhgIRzk4a-62" value="&lt;span style=&quot;color: rgba(0, 0, 0, 0); font-size: 0px; text-align: start; text-wrap-mode: nowrap;&quot;&gt;%3CmxGraphModel%3E%3Croot%3E%3CmxCell%20id%3D%220%22%2F%3E%3CmxCell%20id%3D%221%22%20parent%3D%220%22%2F%3E%3CmxCell%20id%3D%222%22%20value%3D%22Linear%22%20style%3D%22rounded%3D0%3BwhiteSpace%3Dwrap%3Bhtml%3D1%3Bdirection%3Deast%3BstrokeColor%3D%236c8ebf%3BarcSize%3D0%3BimageAspect%3D1%3BfillColor%3D%23dae8fc%3BfontSize%3D15%3B%22%20vertex%3D%221%22%20parent%3D%221%22%3E%3CmxGeometry%20x%3D%22370%22%20y%3D%22809.5%22%20width%3D%22140%22%20height%3D%2251%22%20as%3D%22geometry%22%2F%3E%3C%2FmxCell%3E%3C%2Froot%3E%3C%2FmxGraphModel%3E&lt;/span&gt;" style="shape=cube;whiteSpace=wrap;html=1;boundedLbl=1;backgroundOutline=1;darkOpacity=0.05;darkOpacity2=0.1;fillColor=#fff2cc;strokeColor=#d6b656;size=20;rotation=90;fontFamily=Times New Roman;" parent="AO_P0Q3c_-_OhgIRzk4a-108" vertex="1">
          <mxGeometry x="36" y="1.25" width="80" height="77.5" as="geometry" />
        </mxCell>
        <mxCell id="AO_P0Q3c_-_OhgIRzk4a-96" value="&lt;font style=&quot;font-size: 15px;&quot;&gt;$$O_2$$&lt;/font&gt;" style="text;html=1;align=center;verticalAlign=middle;resizable=0;points=[];autosize=1;strokeColor=none;fillColor=none;fontFamily=Times New Roman;" parent="AO_P0Q3c_-_OhgIRzk4a-108" vertex="1">
          <mxGeometry x="31" y="35.75" width="80" height="30" as="geometry" />
        </mxCell>
        <mxCell id="AO_P0Q3c_-_OhgIRzk4a-97" value="&lt;font style=&quot;font-size: 15px;&quot;&gt;$$H$$&lt;/font&gt;" style="text;html=1;align=center;verticalAlign=middle;resizable=0;points=[];autosize=1;strokeColor=none;fillColor=none;fontFamily=Times New Roman;" parent="AO_P0Q3c_-_OhgIRzk4a-108" vertex="1">
          <mxGeometry x="-4" y="46.75" width="60" height="30" as="geometry" />
        </mxCell>
        <mxCell id="AO_P0Q3c_-_OhgIRzk4a-98" value="&lt;font style=&quot;font-size: 15px;&quot;&gt;$$W$$&lt;/font&gt;" style="text;html=1;align=center;verticalAlign=middle;resizable=0;points=[];autosize=1;strokeColor=none;fillColor=none;fontFamily=Times New Roman;" parent="AO_P0Q3c_-_OhgIRzk4a-108" vertex="1">
          <mxGeometry x="31" y="73.75" width="70" height="30" as="geometry" />
        </mxCell>
        <mxCell id="AO_P0Q3c_-_OhgIRzk4a-99" value="&lt;font style=&quot;font-size: 15px;&quot;&gt;$$2gs^2$$&lt;/font&gt;" style="text;html=1;align=center;verticalAlign=middle;resizable=0;points=[];autosize=1;strokeColor=none;fillColor=none;fontFamily=Times New Roman;" parent="AO_P0Q3c_-_OhgIRzk4a-108" vertex="1">
          <mxGeometry x="78" y="55.75" width="90" height="30" as="geometry" />
        </mxCell>
        <mxCell id="AO_P0Q3c_-_OhgIRzk4a-110" value="" style="group;fontFamily=Times New Roman;" parent="1" vertex="1" connectable="0">
          <mxGeometry x="665.85" y="-6980.75" width="159" height="112.25" as="geometry" />
        </mxCell>
        <mxCell id="AO_P0Q3c_-_OhgIRzk4a-101" value="$$sH$$" style="text;html=1;align=center;verticalAlign=middle;resizable=0;points=[];autosize=1;strokeColor=none;fillColor=none;fontSize=15;fontFamily=Times New Roman;" parent="AO_P0Q3c_-_OhgIRzk4a-110" vertex="1">
          <mxGeometry x="-9" y="25" width="70" height="30" as="geometry" />
        </mxCell>
        <mxCell id="AO_P0Q3c_-_OhgIRzk4a-72" value="&lt;span style=&quot;color: rgba(0, 0, 0, 0); font-size: 0px; text-align: start; text-wrap-mode: nowrap;&quot;&gt;%3CmxGraphModel%3E%3Croot%3E%3CmxCell%20id%3D%220%22%2F%3E%3CmxCell%20id%3D%221%22%20parent%3D%220%22%2F%3E%3CmxCell%20id%3D%222%22%20value%3D%22Linear%22%20style%3D%22rounded%3D0%3BwhiteSpace%3Dwrap%3Bhtml%3D1%3Bdirection%3Deast%3BstrokeColor%3D%236c8ebf%3BarcSize%3D0%3BimageAspect%3D1%3BfillColor%3D%23dae8fc%3BfontSize%3D15%3B%22%20vertex%3D%221%22%20parent%3D%221%22%3E%3CmxGeometry%20x%3D%22370%22%20y%3D%22809.5%22%20width%3D%22140%22%20height%3D%2251%22%20as%3D%22geometry%22%2F%3E%3C%2FmxCell%3E%3C%2Froot%3E%3C%2FmxGraphModel%3E&lt;/span&gt;" style="shape=cube;whiteSpace=wrap;html=1;boundedLbl=1;backgroundOutline=1;darkOpacity=0.05;darkOpacity2=0.1;fillColor=#d5e8d4;strokeColor=#82b366;size=16;rotation=90;fontFamily=Times New Roman;" parent="AO_P0Q3c_-_OhgIRzk4a-110" vertex="1">
          <mxGeometry x="41" y="1.25" width="80" height="77.5" as="geometry" />
        </mxCell>
        <mxCell id="AO_P0Q3c_-_OhgIRzk4a-100" value="&lt;font style=&quot;font-size: 15px;&quot;&gt;$$G$$&lt;/font&gt;" style="text;html=1;align=center;verticalAlign=middle;resizable=0;points=[];autosize=1;strokeColor=none;fillColor=none;fontFamily=Times New Roman;" parent="AO_P0Q3c_-_OhgIRzk4a-110" vertex="1">
          <mxGeometry x="44" y="31.25" width="60" height="30" as="geometry" />
        </mxCell>
        <mxCell id="AO_P0Q3c_-_OhgIRzk4a-102" value="$$sW$$" style="text;html=1;align=center;verticalAlign=middle;resizable=0;points=[];autosize=1;strokeColor=none;fillColor=none;fontSize=15;fontFamily=Times New Roman;spacing=0;" parent="AO_P0Q3c_-_OhgIRzk4a-110" vertex="1">
          <mxGeometry x="39" y="78.75" width="70" height="30" as="geometry" />
        </mxCell>
        <mxCell id="AO_P0Q3c_-_OhgIRzk4a-103" value="$$2g$$" style="text;html=1;align=center;verticalAlign=middle;resizable=0;points=[];autosize=1;strokeColor=none;fillColor=none;fontSize=15;fontFamily=Times New Roman;" parent="AO_P0Q3c_-_OhgIRzk4a-110" vertex="1">
          <mxGeometry x="89" y="61.25" width="70" height="30" as="geometry" />
        </mxCell>
        <mxCell id="AO_P0Q3c_-_OhgIRzk4a-111" value="" style="group;fontSize=15;fontFamily=Times New Roman;" parent="1" vertex="1" connectable="0">
          <mxGeometry x="675.85" y="-7095.5" width="158" height="108.75" as="geometry" />
        </mxCell>
        <mxCell id="AO_P0Q3c_-_OhgIRzk4a-70" value="&lt;span style=&quot;color: rgba(0, 0, 0, 0); font-size: 0px; text-align: start; text-wrap-mode: nowrap;&quot;&gt;%3CmxGraphModel%3E%3Croot%3E%3CmxCell%20id%3D%220%22%2F%3E%3CmxCell%20id%3D%221%22%20parent%3D%220%22%2F%3E%3CmxCell%20id%3D%222%22%20value%3D%22Linear%22%20style%3D%22rounded%3D0%3BwhiteSpace%3Dwrap%3Bhtml%3D1%3Bdirection%3Deast%3BstrokeColor%3D%236c8ebf%3BarcSize%3D0%3BimageAspect%3D1%3BfillColor%3D%23dae8fc%3BfontSize%3D15%3B%22%20vertex%3D%221%22%20parent%3D%221%22%3E%3CmxGeometry%20x%3D%22370%22%20y%3D%22809.5%22%20width%3D%22140%22%20height%3D%2251%22%20as%3D%22geometry%22%2F%3E%3C%2FmxCell%3E%3C%2Froot%3E%3C%2FmxGraphModel%3E&lt;/span&gt;" style="shape=cube;whiteSpace=wrap;html=1;boundedLbl=1;backgroundOutline=1;darkOpacity=0.05;darkOpacity2=0.1;fillColor=#fff2cc;strokeColor=#d6b656;size=16;rotation=90;fontFamily=Times New Roman;" parent="AO_P0Q3c_-_OhgIRzk4a-111" vertex="1">
          <mxGeometry x="39" y="1.25" width="80" height="77.5" as="geometry" />
        </mxCell>
        <mxCell id="AO_P0Q3c_-_OhgIRzk4a-85" value="&lt;font style=&quot;font-size: 15px;&quot;&gt;$$O$$&lt;/font&gt;" style="text;html=1;align=center;verticalAlign=middle;resizable=0;points=[];autosize=1;strokeColor=none;fillColor=none;fontFamily=Times New Roman;" parent="AO_P0Q3c_-_OhgIRzk4a-111" vertex="1">
          <mxGeometry x="40" y="25" width="60" height="30" as="geometry" />
        </mxCell>
        <mxCell id="AO_P0Q3c_-_OhgIRzk4a-86" value="$$sH$$" style="text;html=1;align=center;verticalAlign=middle;resizable=0;points=[];autosize=1;strokeColor=none;fillColor=none;fontSize=15;fontFamily=Times New Roman;" parent="AO_P0Q3c_-_OhgIRzk4a-111" vertex="1">
          <mxGeometry x="-5" y="39.37" width="70" height="30" as="geometry" />
        </mxCell>
        <mxCell id="AO_P0Q3c_-_OhgIRzk4a-87" value="$$sW$$" style="text;html=1;align=center;verticalAlign=middle;resizable=0;points=[];autosize=1;strokeColor=none;fillColor=none;fontSize=15;fontFamily=Times New Roman;" parent="AO_P0Q3c_-_OhgIRzk4a-111" vertex="1">
          <mxGeometry x="40" y="78.75" width="70" height="30" as="geometry" />
        </mxCell>
        <mxCell id="AO_P0Q3c_-_OhgIRzk4a-88" value="$$2g$$" style="text;html=1;align=center;verticalAlign=middle;resizable=0;points=[];autosize=1;strokeColor=none;fillColor=none;fontSize=15;fontFamily=Times New Roman;" parent="AO_P0Q3c_-_OhgIRzk4a-111" vertex="1">
          <mxGeometry x="88" y="68" width="70" height="30" as="geometry" />
        </mxCell>
        <mxCell id="AO_P0Q3c_-_OhgIRzk4a-112" value="$$X$$" style="whiteSpace=wrap;html=1;fillColor=none;fontSize=15;strokeColor=none;fontFamily=Times New Roman;" parent="1" vertex="1">
          <mxGeometry x="197.85" y="-7027.75" width="30" height="30" as="geometry" />
        </mxCell>
        <mxCell id="AO_P0Q3c_-_OhgIRzk4a-118" value="" style="edgeStyle=orthogonalEdgeStyle;rounded=0;orthogonalLoop=1;jettySize=auto;html=1;fontFamily=Times New Roman;" parent="1" source="AO_P0Q3c_-_OhgIRzk4a-73" target="AO_P0Q3c_-_OhgIRzk4a-116" edge="1">
          <mxGeometry relative="1" as="geometry">
            <mxPoint x="845.85" y="-6990.75" as="sourcePoint" />
            <mxPoint x="943.35" y="-6991.25" as="targetPoint" />
          </mxGeometry>
        </mxCell>
        <mxCell id="AO_P0Q3c_-_OhgIRzk4a-116" value="$$S$$" style="whiteSpace=wrap;html=1;fillColor=none;fontSize=15;strokeColor=none;fontFamily=Times New Roman;" parent="1" vertex="1">
          <mxGeometry x="876.15" y="-7005.75" width="30" height="30" as="geometry" />
        </mxCell>
        <mxCell id="K-rQHarK1mUHMqbomgQv-1" value="&lt;font style=&quot;font-size: 15px;&quot;&gt;动态点采样集生成器&lt;/font&gt;" style="text;html=1;align=center;verticalAlign=middle;resizable=0;points=[];autosize=1;strokeColor=none;fillColor=none;fontFamily=Times New Roman;" parent="1" vertex="1">
          <mxGeometry x="431.35" y="-6898.5" width="160" height="30" as="geometry" />
        </mxCell>
        <mxCell id="K-rQHarK1mUHMqbomgQv-5" value="Sampling based dynamic upsampling" style="text;whiteSpace=wrap;html=1;fontFamily=Times New Roman;" parent="1" vertex="1">
          <mxGeometry x="395" y="-5420.5" width="230" height="40" as="geometry" />
        </mxCell>
        <mxCell id="K-rQHarK1mUHMqbomgQv-6" style="edgeStyle=orthogonalEdgeStyle;rounded=0;orthogonalLoop=1;jettySize=auto;html=1;entryX=0.5;entryY=1;entryDx=0;entryDy=0;fontFamily=Times New Roman;" parent="1" source="AO_P0Q3c_-_OhgIRzk4a-72" target="AO_P0Q3c_-_OhgIRzk4a-73" edge="1">
          <mxGeometry relative="1" as="geometry" />
        </mxCell>
        <mxCell id="lizKZsS-HynhIe9b-1j3-4" style="edgeStyle=orthogonalEdgeStyle;rounded=0;orthogonalLoop=1;jettySize=auto;html=1;" parent="1" source="AO_P0Q3c_-_OhgIRzk4a-19" target="AO_P0Q3c_-_OhgIRzk4a-30" edge="1">
          <mxGeometry relative="1" as="geometry" />
        </mxCell>
        <mxCell id="4RJrAXVuoCHtTKXNuJi8-72" style="edgeStyle=orthogonalEdgeStyle;rounded=0;orthogonalLoop=1;jettySize=auto;html=1;entryX=0.005;entryY=0.475;entryDx=0;entryDy=0;entryPerimeter=0;" edge="1" parent="1" source="AO_P0Q3c_-_OhgIRzk4a-19" target="AO_P0Q3c_-_OhgIRzk4a-6">
          <mxGeometry relative="1" as="geometry">
            <Array as="points">
              <mxPoint x="285" y="-5655" />
              <mxPoint x="286" y="-5655" />
              <mxPoint x="286" y="-5696" />
            </Array>
          </mxGeometry>
        </mxCell>
      </root>
    </mxGraphModel>
  </diagram>
</mxfile>
